<svg width="322" height="575" viewBox="0 0 322 575" fill="none" xmlns="http://www.w3.org/2000/svg">
<path d="M260.122 68.8731C260.122 68.8731 155.049 156.536 161.193 181.524" stroke="#F2F2F2" stroke-width="7"/>
<path d="M160.334 497.714L160.334 364.718" stroke="#F2F2F2" stroke-width="7"/>
<path d="M61.2013 478.189C61.2013 478.189 166.274 390.526 160.13 365.538" stroke="#F2F2F2" stroke-width="7"/>
<path d="M259.122 478.651C259.122 478.651 154.049 390.988 160.193 366" stroke="#F2F2F2" stroke-width="7"/>
<path d="M161.603 95.5L161.603 180.652" stroke="#F2F2F2" stroke-width="7"/>
<g clip-path="url(#clip0_1_256)">
<rect y="180.652" width="321.158" height="185.158" rx="6.55425" fill="#121617"/>
<path d="M127.48 267.92C127.481 269.924 127.975 271.896 128.92 273.663C129.865 275.43 131.231 276.937 132.897 278.05V300.423C132.897 301.5 133.325 302.534 134.087 303.296C134.849 304.057 135.882 304.486 136.96 304.486H185.714C186.792 304.486 187.825 304.057 188.587 303.296C189.349 302.534 189.777 301.5 189.777 300.423V278.05C191.443 276.937 192.809 275.43 193.754 273.663C194.699 271.896 195.193 269.924 195.194 267.92V262.503C195.196 262.377 195.182 262.252 195.15 262.13L190.285 245.134C190.043 244.288 189.532 243.543 188.83 243.011C188.128 242.48 187.272 242.191 186.391 242.189H136.283C135.402 242.191 134.546 242.48 133.844 243.011C133.142 243.543 132.631 244.288 132.389 245.134L127.531 262.13C127.497 262.252 127.48 262.377 127.48 262.503V267.92ZM134.993 245.879C135.073 245.598 135.242 245.351 135.475 245.174C135.707 244.997 135.991 244.9 136.283 244.897H186.391C186.685 244.898 186.971 244.994 187.205 245.171C187.44 245.348 187.611 245.596 187.691 245.879L192.045 261.148H130.629L134.993 245.879ZM151.857 263.857H170.817V267.92C170.817 270.434 169.818 272.845 168.04 274.623C166.263 276.401 163.851 277.4 161.337 277.4C158.823 277.4 156.412 276.401 154.634 274.623C152.856 272.845 151.857 270.434 151.857 267.92V263.857ZM130.189 267.92V263.857H149.149V267.92C149.149 270.434 148.15 272.845 146.372 274.623C144.594 276.401 142.183 277.4 139.669 277.4C137.154 277.4 134.743 276.401 132.965 274.623C131.187 272.845 130.189 270.434 130.189 267.92ZM187.068 300.423C187.068 300.782 186.926 301.126 186.672 301.38C186.418 301.634 186.073 301.777 185.714 301.777H136.96C136.601 301.777 136.256 301.634 136.002 301.38C135.748 301.126 135.606 300.782 135.606 300.423V279.411C138.385 280.392 141.425 280.333 144.164 279.245C146.903 278.157 149.155 276.114 150.503 273.493C151.528 275.482 153.082 277.151 154.993 278.316C156.904 279.481 159.099 280.097 161.337 280.097C163.575 280.097 165.77 279.481 167.681 278.316C169.593 277.151 171.146 275.482 172.171 273.493C173.519 276.114 175.771 278.157 178.51 279.245C181.249 280.333 184.289 280.392 187.068 279.411V300.423ZM183.006 277.4C180.491 277.4 178.08 276.401 176.302 274.623C174.524 272.845 173.526 270.434 173.526 267.92V263.857H192.486V267.92C192.486 270.434 191.487 272.845 189.709 274.623C187.931 276.401 185.52 277.4 183.006 277.4Z" fill="#F2F2F2"/>
<line y1="198.061" x2="321.158" y2="198.061" stroke="#F2F2F2" stroke-width="2.86749"/>
<circle cx="11.0603" cy="190.073" r="3.27713" fill="#F2F2F2"/>
<circle cx="20.482" cy="190.073" r="3.27713" fill="#F2F2F2"/>
<circle cx="29.9038" cy="190.073" r="3.27713" fill="#F2F2F2"/>
</g>
<rect x="1.43374" y="182.085" width="318.291" height="182.29" rx="5.12051" stroke="#F2F2F2" stroke-width="2.86749"/>
<path d="M85.5379 492.388C85.5379 514.517 67.5989 532.456 45.4699 532.456C23.341 532.456 5.40195 514.517 5.40195 492.388C5.40195 470.259 23.341 452.32 45.4699 452.32C67.5989 452.32 85.5379 470.259 85.5379 492.388Z" fill="#F2F2F2" stroke="#F2F2F2" stroke-width="1.79218"/>
<path d="M69.0084 479.733L58.6534 474.084C58.5362 474.02 58.4049 473.987 58.2713 473.986H51.8707C51.6585 473.986 51.455 474.071 51.3049 474.221C51.1549 474.371 51.0706 474.574 51.0706 474.786C51.0706 476.272 50.4805 477.696 49.4302 478.747C48.3799 479.797 46.9554 480.387 45.47 480.387C43.9847 480.387 42.5602 479.797 41.5099 478.747C40.4595 477.696 39.8695 476.272 39.8695 474.786C39.8695 474.574 39.7852 474.371 39.6352 474.221C39.4851 474.071 39.2816 473.986 39.0694 473.986H32.6688C32.5357 473.988 32.4051 474.022 32.2887 474.086L21.9317 479.733C21.378 480.022 20.9618 480.519 20.7743 481.115C20.5868 481.711 20.6434 482.357 20.9316 482.911L24.788 490.274C24.9998 490.673 25.3168 491.006 25.7047 491.238C26.0926 491.47 26.5364 491.591 26.9882 491.588H31.8687V508.39C31.8687 509.026 32.1216 509.637 32.5717 510.087C33.0218 510.537 33.6323 510.79 34.2689 510.79H56.6712C57.3077 510.79 57.9183 510.537 58.3684 510.087C58.8185 509.637 59.0714 509.026 59.0714 508.39V491.588H63.9379C64.3896 491.591 64.8335 491.47 65.2214 491.238C65.6093 491.006 65.9263 490.673 66.1381 490.274L69.9945 482.911C70.2838 482.359 70.3425 481.714 70.1577 481.118C69.9729 480.523 69.5596 480.025 69.0084 479.733ZM27.0022 489.988C26.84 489.992 26.6798 489.951 26.5388 489.871C26.3978 489.791 26.2814 489.673 26.2021 489.532L22.3557 482.169C22.3093 482.079 22.2813 481.981 22.2733 481.88C22.2654 481.779 22.2778 481.678 22.3096 481.582C22.3415 481.486 22.3923 481.397 22.4589 481.321C22.5256 481.245 22.6068 481.183 22.6978 481.139L31.8687 476.135V489.988H27.0022ZM57.4712 508.39C57.4712 508.602 57.3869 508.805 57.2369 508.955C57.0869 509.106 56.8834 509.19 56.6712 509.19H34.2689C34.0567 509.19 33.8532 509.106 33.7032 508.955C33.5531 508.805 33.4689 508.602 33.4689 508.39V475.586H38.3133C38.5089 477.348 39.3472 478.975 40.6676 480.157C41.988 481.339 43.6979 481.992 45.47 481.992C47.2422 481.992 48.9521 481.339 50.2725 480.157C51.5929 478.975 52.4311 477.348 52.6268 475.586H57.4712V508.39ZM68.5843 482.169L64.73 489.532C64.6507 489.673 64.5343 489.791 64.3933 489.871C64.2523 489.951 64.0921 489.992 63.9299 489.988H59.0714V476.135L68.2423 481.135C68.3338 481.179 68.4155 481.241 68.4825 481.318C68.5495 481.394 68.6005 481.483 68.6324 481.58C68.6643 481.676 68.6765 481.778 68.6682 481.879C68.66 481.981 68.6315 482.079 68.5843 482.169Z" fill="#121617"/>
<path d="M200.538 533.388C200.538 555.517 182.599 573.456 160.47 573.456C138.341 573.456 120.402 555.517 120.402 533.388C120.402 511.259 138.341 493.32 160.47 493.32C182.599 493.32 200.538 511.259 200.538 533.388Z" fill="#F2F2F2" stroke="#F2F2F2" stroke-width="1.79218"/>
<path d="M184.008 520.733L173.653 515.084C173.536 515.02 173.405 514.987 173.271 514.986H166.871C166.658 514.986 166.455 515.071 166.305 515.221C166.155 515.371 166.071 515.574 166.071 515.786C166.071 517.272 165.481 518.696 164.43 519.747C163.38 520.797 161.955 521.387 160.47 521.387C158.985 521.387 157.56 520.797 156.51 519.747C155.46 518.696 154.869 517.272 154.869 515.786C154.869 515.574 154.785 515.371 154.635 515.221C154.485 515.071 154.282 514.986 154.069 514.986H147.669C147.536 514.988 147.405 515.022 147.289 515.086L136.932 520.733C136.378 521.022 135.962 521.519 135.774 522.115C135.587 522.711 135.643 523.357 135.932 523.911L139.788 531.274C140 531.673 140.317 532.006 140.705 532.238C141.093 532.47 141.536 532.591 141.988 532.588H146.869V549.39C146.869 550.026 147.122 550.637 147.572 551.087C148.022 551.537 148.632 551.79 149.269 551.79H171.671C172.308 551.79 172.918 551.537 173.368 551.087C173.819 550.637 174.071 550.026 174.071 549.39V532.588H178.938C179.39 532.591 179.834 532.47 180.221 532.238C180.609 532.006 180.926 531.673 181.138 531.274L184.994 523.911C185.284 523.359 185.342 522.714 185.158 522.118C184.973 521.523 184.56 521.025 184.008 520.733ZM142.002 530.988C141.84 530.992 141.68 530.951 141.539 530.871C141.398 530.791 141.281 530.673 141.202 530.532L137.356 523.169C137.309 523.079 137.281 522.981 137.273 522.88C137.265 522.779 137.278 522.678 137.31 522.582C137.342 522.486 137.392 522.397 137.459 522.321C137.526 522.245 137.607 522.183 137.698 522.139L146.869 517.135V530.988H142.002ZM172.471 549.39C172.471 549.602 172.387 549.805 172.237 549.955C172.087 550.106 171.883 550.19 171.671 550.19H149.269C149.057 550.19 148.853 550.106 148.703 549.955C148.553 549.805 148.469 549.602 148.469 549.39V516.586H153.313C153.509 518.348 154.347 519.975 155.668 521.157C156.988 522.339 158.698 522.992 160.47 522.992C162.242 522.992 163.952 522.339 165.272 521.157C166.593 519.975 167.431 518.348 167.627 516.586H172.471V549.39ZM183.584 523.169L179.73 530.532C179.651 530.673 179.534 530.791 179.393 530.871C179.252 530.951 179.092 530.992 178.93 530.988H174.071V517.135L183.242 522.135C183.334 522.179 183.415 522.241 183.482 522.318C183.55 522.394 183.6 522.483 183.632 522.58C183.664 522.676 183.676 522.778 183.668 522.879C183.66 522.981 183.631 523.079 183.584 523.169Z" fill="#121617"/>
<path d="M201.877 60.1209C201.877 82.2498 183.938 100.189 161.809 100.189C139.68 100.189 121.741 82.2498 121.741 60.1209C121.741 37.992 139.68 20.0529 161.809 20.0529C183.938 20.0529 201.877 37.992 201.877 60.1209Z" fill="#121617" stroke="#F2F2F2" stroke-width="1.79218"/>
<path d="M179.939 75.5834C176.758 70.0847 171.66 66.3303 165.753 64.9768C168.56 63.8269 170.88 61.7379 172.318 59.067C173.756 56.396 174.221 53.3087 173.635 50.3326C173.049 47.3564 171.448 44.6761 169.105 42.7496C166.762 40.823 163.823 39.7698 160.79 39.7698C157.756 39.7698 154.817 40.823 152.474 42.7496C150.131 44.6761 148.53 47.3564 147.944 50.3326C147.358 53.3087 147.823 56.396 149.261 59.067C150.699 61.7379 153.019 63.8269 155.826 64.9768C149.927 66.3246 144.821 70.0847 141.64 75.5834C141.548 75.7594 141.528 75.9642 141.583 76.155C141.638 76.3458 141.765 76.5078 141.937 76.6072C142.109 76.7066 142.313 76.7357 142.506 76.6884C142.699 76.6412 142.866 76.5212 142.973 76.3536C146.735 69.844 153.4 65.9568 160.79 65.9568C168.179 65.9568 174.844 69.844 178.606 76.3536C178.674 76.4705 178.771 76.5677 178.888 76.6353C179.005 76.7028 179.138 76.7385 179.273 76.7386C179.408 76.739 179.541 76.7031 179.658 76.6347C179.834 76.5324 179.963 76.3643 180.016 76.1672C180.068 75.9701 180.041 75.7602 179.939 75.5834ZM149.238 52.8646C149.238 50.5799 149.915 48.3464 151.184 46.4467C152.454 44.547 154.258 43.0663 156.369 42.192C158.48 41.3177 160.802 41.0889 163.043 41.5346C165.284 41.9804 167.342 43.0806 168.958 44.6962C170.574 46.3117 171.674 48.3701 172.119 50.6109C172.565 52.8518 172.336 55.1745 171.462 57.2854C170.588 59.3962 169.107 61.2004 167.207 62.4697C165.308 63.739 163.074 64.4166 160.79 64.4166C157.727 64.413 154.791 63.1948 152.625 61.0291C150.459 58.8635 149.241 55.9273 149.238 52.8646Z" fill="#F2F2F2"/>
<path d="M315.538 492.388C315.538 514.517 297.599 532.456 275.47 532.456C253.341 532.456 235.402 514.517 235.402 492.388C235.402 470.259 253.341 452.32 275.47 452.32C297.599 452.32 315.538 470.259 315.538 492.388Z" fill="#F2F2F2" stroke="#F2F2F2" stroke-width="1.79218"/>
<path d="M299.008 479.733L288.653 474.084C288.536 474.02 288.405 473.987 288.271 473.986H281.871C281.658 473.986 281.455 474.071 281.305 474.221C281.155 474.371 281.071 474.574 281.071 474.786C281.071 476.272 280.481 477.696 279.43 478.747C278.38 479.797 276.955 480.387 275.47 480.387C273.985 480.387 272.56 479.797 271.51 478.747C270.46 477.696 269.869 476.272 269.869 474.786C269.869 474.574 269.785 474.371 269.635 474.221C269.485 474.071 269.282 473.986 269.069 473.986H262.669C262.536 473.988 262.405 474.022 262.289 474.086L251.932 479.733C251.378 480.022 250.962 480.519 250.774 481.115C250.587 481.711 250.643 482.357 250.932 482.911L254.788 490.274C255 490.673 255.317 491.006 255.705 491.238C256.093 491.47 256.536 491.591 256.988 491.588H261.869V508.39C261.869 509.026 262.122 509.637 262.572 510.087C263.022 510.537 263.632 510.79 264.269 510.79H286.671C287.308 510.79 287.918 510.537 288.368 510.087C288.819 509.637 289.071 509.026 289.071 508.39V491.588H293.938C294.39 491.591 294.834 491.47 295.221 491.238C295.609 491.006 295.926 490.673 296.138 490.274L299.994 482.911C300.284 482.359 300.342 481.714 300.158 481.118C299.973 480.523 299.56 480.025 299.008 479.733ZM257.002 489.988C256.84 489.992 256.68 489.951 256.539 489.871C256.398 489.791 256.281 489.673 256.202 489.532L252.356 482.169C252.309 482.079 252.281 481.981 252.273 481.88C252.265 481.779 252.278 481.678 252.31 481.582C252.342 481.486 252.392 481.397 252.459 481.321C252.526 481.245 252.607 481.183 252.698 481.139L261.869 476.135V489.988H257.002ZM287.471 508.39C287.471 508.602 287.387 508.805 287.237 508.955C287.087 509.106 286.883 509.19 286.671 509.19H264.269C264.057 509.19 263.853 509.106 263.703 508.955C263.553 508.805 263.469 508.602 263.469 508.39V475.586H268.313C268.509 477.348 269.347 478.975 270.668 480.157C271.988 481.339 273.698 481.992 275.47 481.992C277.242 481.992 278.952 481.339 280.272 480.157C281.593 478.975 282.431 477.348 282.627 475.586H287.471V508.39ZM298.584 482.169L294.73 489.532C294.651 489.673 294.534 489.791 294.393 489.871C294.252 489.951 294.092 489.992 293.93 489.988H289.071V476.135L298.242 481.135C298.334 481.179 298.415 481.241 298.482 481.318C298.55 481.394 298.6 481.483 298.632 481.58C298.664 481.676 298.676 481.778 298.668 481.879C298.66 481.981 298.631 482.079 298.584 482.169Z" fill="#121617"/>
<path d="M315.756 40.964C315.756 63.093 297.817 81.032 275.688 81.032C253.559 81.032 235.62 63.093 235.62 40.964C235.62 18.8351 253.559 0.896089 275.688 0.896089C297.817 0.896089 315.756 18.8351 315.756 40.964Z" fill="#121617" stroke="#F2F2F2" stroke-width="1.79218"/>
<path d="M294.005 56.6456C290.825 51.1469 285.726 47.3925 279.819 46.039C282.626 44.889 284.947 42.8001 286.384 40.1291C287.822 37.4582 288.287 34.3709 287.701 31.3947C287.115 28.4186 285.514 25.7383 283.171 23.8117C280.828 21.8852 277.889 20.8319 274.856 20.8319C271.823 20.8319 268.883 21.8852 266.541 23.8117C264.198 25.7383 262.596 28.4186 262.01 31.3947C261.424 34.3709 261.89 37.4582 263.328 40.1291C264.765 42.8001 267.086 44.889 269.892 46.039C263.993 47.3867 258.887 51.1469 255.707 56.6456C255.615 56.8216 255.594 57.0264 255.649 57.2171C255.705 57.4079 255.832 57.5699 256.004 57.6693C256.176 57.7687 256.379 57.7978 256.572 57.7506C256.765 57.7033 256.932 57.5834 257.039 57.4157C260.801 50.9062 267.467 47.019 274.856 47.019C282.245 47.019 288.911 50.9062 292.673 57.4157C292.74 57.5327 292.837 57.6298 292.954 57.6974C293.071 57.765 293.204 57.8007 293.339 57.8008C293.474 57.8012 293.607 57.7653 293.724 57.6968C293.901 57.5946 294.029 57.4264 294.082 57.2294C294.135 57.0323 294.107 56.8223 294.005 56.6456ZM263.304 33.9268C263.304 31.642 263.981 29.4086 265.251 27.5089C266.52 25.6092 268.324 24.1285 270.435 23.2542C272.546 22.3798 274.869 22.1511 277.11 22.5968C279.35 23.0425 281.409 24.1428 283.024 25.7583C284.64 27.3739 285.74 29.4322 286.186 31.6731C286.632 33.914 286.403 36.2367 285.529 38.3475C284.654 40.4584 283.174 42.2625 281.274 43.5319C279.374 44.8012 277.141 45.4787 274.856 45.4787C271.793 45.4752 268.857 44.2569 266.691 42.0913C264.526 39.9257 263.308 36.9894 263.304 33.9268Z" fill="#F2F2F2"/>
<path d="M62.8398 68.9578C62.8398 68.9578 167.913 156.621 161.768 181.609" stroke="#F2F2F2" stroke-width="7"/>
<path d="M85.5379 40.964C85.5379 63.093 67.5989 81.032 45.4699 81.032C23.341 81.032 5.40195 63.093 5.40195 40.964C5.40195 18.8351 23.341 0.896089 45.4699 0.896089C67.5989 0.896089 85.5379 18.8351 85.5379 40.964Z" fill="#121617" stroke="#F2F2F2" stroke-width="1.79218"/>
<path d="M64.7288 57.6313C61.5482 52.1326 56.4499 48.3782 50.543 47.0247C53.3499 45.8748 55.6703 43.7859 57.1079 41.1149C58.5456 38.4439 59.0111 35.3566 58.4251 32.3805C57.8391 29.4044 56.2378 26.724 53.8949 24.7975C51.552 22.8709 48.6128 21.8177 45.5795 21.8177C42.5463 21.8177 39.6071 22.8709 37.2642 24.7975C34.9213 26.724 33.32 29.4044 32.734 32.3805C32.148 35.3566 32.6135 38.4439 34.0511 41.1149C35.4888 43.7859 37.8092 45.8748 40.6161 47.0247C34.7169 48.3725 29.6109 52.1326 26.4303 57.6313C26.3382 57.8074 26.3177 58.0121 26.373 58.2029C26.4284 58.3937 26.5553 58.5557 26.7273 58.6551C26.8992 58.7545 27.103 58.7836 27.2959 58.7363C27.4888 58.6891 27.656 58.5691 27.7626 58.4015C31.5247 51.892 38.1901 48.0047 45.5795 48.0047C52.9689 48.0047 59.6344 51.892 63.3965 58.4015C63.464 58.5184 63.5611 58.6156 63.678 58.6832C63.795 58.7508 63.9276 58.7864 64.0627 58.7865C64.198 58.7869 64.331 58.751 64.4477 58.6826C64.6243 58.5803 64.753 58.4122 64.8057 58.2151C64.8584 58.018 64.8308 57.8081 64.7288 57.6313ZM34.0276 34.9125C34.0276 32.6278 34.7051 30.3943 35.9744 28.4946C37.2438 26.5949 39.048 25.1143 41.1588 24.2399C43.2696 23.3656 45.5924 23.1368 47.8332 23.5826C50.0741 24.0283 52.1324 25.1285 53.748 26.7441C55.3636 28.3596 56.4638 30.418 56.9095 32.6589C57.3553 34.8997 57.1265 37.2224 56.2522 39.3333C55.3778 41.4441 53.8972 43.2483 51.9975 44.5176C50.0978 45.787 47.8643 46.4645 45.5795 46.4645C42.5169 46.4609 39.5807 45.2427 37.415 43.077C35.2494 40.9114 34.0312 37.9752 34.0276 34.9125Z" fill="#F2F2F2"/>
<defs>
<clipPath id="clip0_1_256">
<rect y="180.652" width="321.158" height="185.158" rx="6.55425" fill="white"/>
</clipPath>
</defs>
</svg>
